<svg xmlns="http://www.w3.org/2000/svg" width="142.245" height="127.046" viewBox="0 0 142.245 127.046">
  <g id="Grupo_541" data-name="Grupo 541" transform="translate(-85 -63)">
    <g id="Grupo_540" data-name="Grupo 540">
      <g id="Grupo_539" data-name="Grupo 539">
        <g id="Grupo_538" data-name="Grupo 538">
          <g id="Grupo_537" data-name="Grupo 537">
            <g id="Grupo_536" data-name="Grupo 536">
              <g id="Grupo_110" data-name="Grupo 110" transform="translate(-708.269 -210.869)">
                <rect id="Rect치ngulo_2" data-name="Rect치ngulo 2" width="11.897" height="98.146" transform="matrix(0.707, -0.707, 0.707, 0.707, 793.269, 282.282)" fill="#fff"/>
                <rect id="Rect치ngulo_3" data-name="Rect치ngulo 3" width="98.146" height="11.896" transform="translate(793.271 343.269) rotate(-45)" fill="#fff"/>
                <path id="Trazado_1" data-name="Trazado 1" d="M89.316,117.558a52.737,52.737,0,0,1-4.2-4.826,61.827,61.827,0,0,1,.521,6.433v14.8h-6.8V98.35h.726l17.8,16.719a49.461,49.461,0,0,1,4.155,4.827s-.465-4-.465-6.44V98.664h6.8v35.608h-.731Z" transform="translate(715.072 266.382)" fill="#fff"/>
                <path id="Trazado_2" data-name="Trazado 2" d="M98.621,117.521c0-6.745,5.351-11.573,12.2-11.573s12.147,4.827,12.147,11.573c0,6.7-5.292,11.47-12.147,11.47s-12.2-4.769-12.2-11.47m17.184,0c0-3.321-1.868-5.551-4.982-5.551s-5.037,2.23-5.037,5.551c0,3.273,1.92,5.553,5.037,5.553s4.982-2.28,4.982-5.553" transform="translate(729.229 271.819)" fill="#fff"/>
                <path id="Trazado_3" data-name="Trazado 3" d="M117.6,124.834V116.84h-3.266v-5.812H117.6V99.5h6.956v11.528h5.659v5.812h-5.659v8.2c0,2.234.729,2.7,1.815,2.7a4.285,4.285,0,0,0,2.443-.933l2.645,4.879a9.308,9.308,0,0,1-6.174,2.024c-4.465,0-7.685-2.232-7.685-8.876" transform="translate(740.468 267.205)" fill="#fff"/>
                <path id="Trazado_4" data-name="Trazado 4" d="M126.28,116.356A17.78,17.78,0,0,1,144.449,98.29c6.383,0,10.953,2.287,14.12,7.217l-5.556,3.946a9.62,9.62,0,0,0-8.564-4.618c-6.387,0-10.692,4.93-10.692,11.521s4.306,11.631,10.692,11.631c4.567,0,7.112-2.18,9.085-5.193l5.656,3.892c-3.064,4.776-7.941,7.786-14.741,7.786a17.821,17.821,0,0,1-18.169-18.117" transform="translate(749.018 266.34)" fill="#fff"/>
                <path id="Trazado_5" data-name="Trazado 5" d="M147.189,117.521c0-6.745,5.349-11.573,12.2-11.573s12.147,4.827,12.147,11.573c0,6.7-5.3,11.47-12.147,11.47s-12.2-4.769-12.2-11.47m17.182,0c0-3.321-1.868-5.551-4.982-5.551s-5.037,2.23-5.037,5.551c0,3.273,1.92,5.553,5.037,5.553s4.982-2.28,4.982-5.553" transform="translate(763.978 271.819)" fill="#fff"/>
              </g>
            </g>
          </g>
        </g>
      </g>
    </g>
  </g>
</svg>
