<svg width="306px" height="276px" viewBox="0 0 306 276" version="1.1" xmlns="http://www.w3.org/2000/svg" xmlns:xlink="http://www.w3.org/1999/xlink">
  <title>Fill 6</title>
  <defs>
    <polygon id="path-1" points="0.06 0 2312.77 0 2312.77 599.94 0.06 599.94"></polygon>
  </defs>
  <g id="Page-1" stroke="none" stroke-width="1" fill="none" fill-rule="evenodd">
    <g id="NotCo-Logo" transform="translate(-620.000000, -162.000000)">
      <g id="Group-5">
        <mask id="mask-2" fill="white">
          <use xlink:href="#path-1"></use>
        </mask>
        <g id="Clip-2"></g>
        <polygon id="Fill-3" fill="#000105" mask="url(#mask-2)" points="472.773 599.94 1072.77 599.94 1072.77 0 472.773 0"></polygon>
      </g>
      <path d="M784.784,185.537 L761.244,161.996 L702.392,220.848 L643.54,161.996 L620,185.537 L678.852,244.388 L620,303.24 L643.54,326.781 L702.392,267.929 L761.244,326.781 L784.784,303.24 L725.933,244.388 L784.784,185.537 Z M910.686,413.558 C910.686,406.165 906.504,401.198 899.544,401.198 C892.579,401.198 888.283,406.165 888.283,413.558 C888.283,420.834 892.579,425.918 899.544,425.918 C906.504,425.918 910.686,420.834 910.686,413.558 Z M873.42,413.558 C873.42,399.178 884.867,388.887 899.541,388.887 C914.211,388.887 925.545,399.178 925.545,413.558 C925.545,427.826 914.211,438.004 899.541,438.004 C884.867,438.004 873.42,427.826 873.42,413.558 Z M682.79,438.004 L682.79,360.189 L667.735,360.108 L667.735,400.535 L620,356.211 C620,356.211 620,410.428 620,436.039 C625.057,436.039 630.522,436.039 635.055,436.039 C635.055,421.152 635.04,394.423 635.04,394.423 L682.79,438.004 Z M794.933,398.983 C794.933,376.51 812.344,360.072 834.25,360.072 C848.067,360.072 857.955,364.993 864.806,375.613 L852.787,384.112 C849.193,378.299 843.014,374.161 834.25,374.161 C820.434,374.161 811.109,384.781 811.109,398.983 C811.109,413.181 820.434,424.029 834.25,424.029 C844.134,424.029 849.641,419.331 853.907,412.845 L866.155,421.234 C859.524,431.517 848.968,438.004 834.25,438.004 C812.344,438.004 794.933,421.457 794.933,398.983 Z M757.994,419.087 L757.994,401.241 L750.295,401.241 L750.29,388.885 L757.994,388.885 L757.994,374.078 L772.886,374.078 L772.886,388.885 L784.407,388.885 L784.411,401.241 L772.886,401.241 L772.886,419.529 C772.886,424.285 774.443,425.285 776.777,425.285 C779.22,425.285 780.998,423.956 781.998,423.29 L787.668,433.688 C785.333,435.571 781.333,438.003 774.443,438.003 C764.886,438.003 757.994,433.247 757.994,419.087 Z M730.448,413.558 C730.448,406.165 726.267,401.198 719.307,401.198 C712.341,401.198 708.046,406.165 708.046,413.558 C708.046,420.834 712.341,425.918 719.307,425.918 C726.267,425.918 730.448,420.834 730.448,413.558 Z M693.183,413.558 C693.183,399.178 704.63,388.887 719.304,388.887 C733.973,388.887 745.308,399.178 745.308,413.558 C745.308,427.826 733.973,438.004 719.304,438.004 C704.63,438.004 693.183,427.826 693.183,413.558 L693.183,413.558 Z" id="Fill-6" fill="#FFFFFE"></path>
    </g>
  </g>
</svg>
