<svg width="306px" height="276px" viewBox="0 0 306 276" version="1.1" xmlns="http://www.w3.org/2000/svg" xmlns:xlink="http://www.w3.org/1999/xlink">
  <title>Fill 4</title>
  <defs>
    <polygon id="path-1" points="0.06 0 2312.77 0 2312.77 599.94 0.06 599.94"></polygon>
  </defs>
  <g id="Page-1" stroke="none" stroke-width="1" fill="none" fill-rule="evenodd">
    <g id="Group-5" transform="translate(0.000000, -162.000000)">
      <mask id="mask-2" fill="white">
        <use xlink:href="#path-1"></use>
      </mask>
      <g id="Clip-2"></g>
      <path d="M164.784,185.537 L141.244,161.996 L82.392,220.848 L23.541,161.996 L0,185.537 L58.852,244.388 L0,303.24 L23.541,326.781 L82.392,267.929 L141.244,326.781 L164.784,303.24 L105.933,244.388 L164.784,185.537 Z M290.686,413.558 C290.686,406.165 286.504,401.198 279.544,401.198 C272.579,401.198 268.283,406.165 268.283,413.558 C268.283,420.834 272.579,425.918 279.544,425.918 C286.504,425.918 290.686,420.834 290.686,413.558 Z M253.42,413.558 C253.42,399.178 264.867,388.887 279.541,388.887 C294.211,388.887 305.545,399.178 305.545,413.558 C305.545,427.826 294.211,438.004 279.541,438.004 C264.867,438.004 253.42,427.826 253.42,413.558 Z M62.79,438.004 L62.79,360.189 L47.735,360.108 L47.734,400.535 L0,356.211 C0,356.211 0,410.428 0,436.039 C5.057,436.039 10.522,436.039 15.055,436.039 C15.055,421.152 15.04,394.423 15.04,394.423 L62.79,438.004 Z M174.933,398.983 C174.933,376.51 192.344,360.072 214.251,360.072 C228.067,360.072 237.955,364.993 244.806,375.613 L232.787,384.112 C229.192,378.299 223.013,374.161 214.251,374.161 C200.434,374.161 191.109,384.781 191.109,398.983 C191.109,413.181 200.434,424.029 214.251,424.029 C224.134,424.029 229.64,419.331 233.907,412.845 L246.155,421.234 C239.524,431.517 228.968,438.004 214.251,438.004 C192.344,438.004 174.933,421.457 174.933,398.983 Z M137.994,419.087 L137.994,401.241 L130.295,401.241 L130.291,388.885 L137.994,388.885 L137.994,374.078 L152.885,374.078 L152.885,388.885 L164.407,388.885 L164.411,401.241 L152.885,401.241 L152.885,419.529 C152.885,424.285 154.442,425.285 156.777,425.285 C159.22,425.285 160.999,423.956 161.999,423.29 L167.668,433.688 C165.333,435.571 161.333,438.003 154.442,438.003 C144.886,438.003 137.994,433.247 137.994,419.087 Z M110.448,413.558 C110.448,406.165 106.267,401.198 99.306,401.198 C92.341,401.198 88.046,406.165 88.046,413.558 C88.046,420.834 92.341,425.918 99.306,425.918 C106.267,425.918 110.448,420.834 110.448,413.558 Z M73.182,413.558 C73.182,399.178 84.63,388.887 99.304,388.887 C113.973,388.887 125.308,399.178 125.308,413.558 C125.308,427.826 113.973,438.004 99.304,438.004 C84.63,438.004 73.182,427.826 73.182,413.558 L73.182,413.558 Z" id="Fill-4" fill="#000105" mask="url(#mask-2)"></path>
    </g>
  </g>
</svg>
