<svg id="Grupo_539" data-name="Grupo 539" xmlns="http://www.w3.org/2000/svg" width="119.466" height="106.7" viewBox="0 0 119.466 106.7">
  <rect id="Rect치ngulo_2" data-name="Rect치ngulo 2" width="9.992" height="82.428" transform="matrix(0.707, -0.707, 0.707, 0.707, 0, 7.065)" fill="#161616"/>
  <rect id="Rect치ngulo_3" data-name="Rect치ngulo 3" width="82.429" height="9.991" transform="translate(0.001 58.286) rotate(-45)" fill="#161616"/>
  <path id="Trazado_1" data-name="Trazado 1" d="M87.637,114.482a44.288,44.288,0,0,1-3.531-4.053,51.926,51.926,0,0,1,.438,5.4V128.26h-5.71V98.35h.609l14.951,14.041a41.543,41.543,0,0,1,3.489,4.054s-.39-3.357-.39-5.409V98.614H103.2v29.906h-.614Z" transform="translate(-78.299 -22.038)" fill="#161616"/>
  <path id="Trazado_2" data-name="Trazado 2" d="M98.621,115.667c0-5.665,4.494-9.719,10.248-9.719s10.2,4.054,10.2,9.719c0,5.628-4.445,9.633-10.2,9.633s-10.248-4.005-10.248-9.633m14.432,0c0-2.789-1.569-4.662-4.184-4.662s-4.23,1.873-4.23,4.662c0,2.749,1.612,4.664,4.23,4.664s4.184-1.915,4.184-4.664" transform="translate(-69.578 -18.689)" fill="#161616"/>
  <path id="Trazado_3" data-name="Trazado 3" d="M117.072,120.777v-6.714h-2.743v-4.881h2.743V99.5h5.842v9.682h4.753v4.881h-4.753v6.89c0,1.876.612,2.265,1.524,2.265a3.6,3.6,0,0,0,2.052-.784l2.222,4.1a7.818,7.818,0,0,1-5.185,1.7c-3.75,0-6.455-1.874-6.455-7.454" transform="translate(-62.655 -21.531)" fill="#161616"/>
  <path id="Trazado_4" data-name="Trazado 4" d="M126.28,113.462A14.932,14.932,0,0,1,141.539,98.29c5.361,0,9.2,1.921,11.859,6.061l-4.667,3.314a8.08,8.08,0,0,0-7.192-3.878c-5.364,0-8.98,4.141-8.98,9.676s3.616,9.768,8.98,9.768c3.835,0,5.973-1.831,7.63-4.361l4.75,3.269a13.951,13.951,0,0,1-12.38,6.54,14.967,14.967,0,0,1-15.259-15.216" transform="translate(-57.387 -22.064)" fill="#161616"/>
  <path id="Trazado_5" data-name="Trazado 5" d="M147.189,115.667c0-5.665,4.492-9.719,10.247-9.719s10.2,4.054,10.2,9.719c0,5.628-4.448,9.633-10.2,9.633s-10.247-4.005-10.247-9.633m14.431,0c0-2.789-1.569-4.662-4.184-4.662s-4.23,1.873-4.23,4.662c0,2.749,1.612,4.664,4.23,4.664s4.184-1.915,4.184-4.664" transform="translate(-48.172 -18.689)" fill="#161616"/>
</svg>
