<svg width="26px" height="36px" viewBox="0 0 26 36" version="1.1" xmlns="http://www.w3.org/2000/svg" xmlns:xlink="http://www.w3.org/1999/xlink">
    <!-- Generator: Sketch 50.2 (55047) - http://www.bohemiancoding.com/sketch -->
    <defs></defs>
    <g id="Page-1" stroke="none" stroke-width="1" fill="none" fill-rule="evenodd">
        <g id="20200721-NotMilk-Coffee-WEB-copy" transform="translate(-494.000000, -3873.000000)" fill="#FFFFFF">
            <g id="Group-34" transform="translate(494.000000, 3873.000000)">
                <path d="M13.3672,6.1154 C9.6982,6.0874 6.6782,8.9824 6.6622,12.5434 C6.6472,16.1134 9.6052,19.0154 13.2942,19.0504 C16.9332,19.0834 19.9762,16.1604 20.0002,12.6104 C20.0232,9.0414 17.0652,6.1444 13.3672,6.1154 M13.3502,35.8604 C7.8322,30.1534 3.0282,24.3114 1.2512,16.6124 C-0.0618,10.9194 2.0492,5.7174 6.5542,2.8424 C11.1202,-0.0716 16.6752,0.2084 21.0992,3.5774 C25.1932,6.6954 26.7972,12.1274 25.1482,17.6064 C23.0142,24.6984 18.4502,30.2314 13.3502,35.8604" id="Fill-30"></path>
            </g>
        </g>
    </g>
</svg>
